<svg width="56" height="56" viewBox="0 0 56 56" fill="none" xmlns="http://www.w3.org/2000/svg">
          <rect width="56" height="56" rx="28" fill="#E5FFF1"></rect>
          <path d="M35.293 22.2928L26.0001 31.5857L20.7072 26.2928L19.293 27.7071L26.0001 34.4142L36.7072 23.7071L35.293 22.2928Z" fill="#007F31"></path>
          <path fill-rule="evenodd" clip-rule="evenodd" d="M44 28C44 36.8366 36.8366 44 28 44C19.1634 44 12 36.8366 12 28C12 19.1634 19.1634 12 28 12C36.8366 12 44 19.1634 44 28ZM42 28C42 35.732 35.732 42 28 42C20.268 42 14 35.732 14 28C14 20.268 20.268 14 28 14C35.732 14 42 20.268 42 28Z" fill="#007F31"></path>
        </svg>