<svg width="23" height="22" viewBox="0 0 23 22" fill="none" xmlns="http://www.w3.org/2000/svg">
<path d="M11.4996 0C9.22502 3.57744e-09 7.00153 0.645173 5.11029 1.85393C3.21906 3.06269 1.74503 4.78074 0.87462 6.79082C0.00420677 8.8009 -0.2235 11.0127 0.220297 13.1466C0.664093 15.2805 1.75946 17.2405 3.36787 18.7789C4.97629 20.3173 7.02551 21.365 9.2564 21.7893C11.4873 22.2137 13.7996 21.9958 15.901 21.1631C18.0024 20.3304 19.7985 18.9204 21.0621 17.1113C22.3257 15.3022 23.0001 13.1754 22.9999 10.9997C22.9994 8.08243 21.7876 5.28481 19.6309 3.22206C17.4743 1.15931 14.5495 0.000334504 11.4996 0ZM11.4996 4.88069C11.8848 4.88069 12.2613 4.98994 12.5816 5.19463C12.9018 5.39932 13.1515 5.69025 13.2989 6.03064C13.4463 6.37103 13.4848 6.74558 13.4097 7.10693C13.3345 7.46828 13.1491 7.80021 12.8767 8.06073C12.6043 8.32125 12.2573 8.49866 11.8795 8.57054C11.5018 8.64242 11.1102 8.60553 10.7543 8.46454C10.3985 8.32354 10.0943 8.08478 9.88032 7.77844C9.66632 7.4721 9.5521 7.11194 9.5521 6.74351C9.5521 6.24946 9.75729 5.77564 10.1225 5.4263C10.4877 5.07695 10.9831 4.88069 11.4996 4.88069ZM14.0967 16.1466C14.0967 16.2878 14.0381 16.4232 13.9337 16.5231C13.8293 16.6229 13.6877 16.679 13.5401 16.679H9.45912C9.31149 16.679 9.16991 16.6229 9.06553 16.5231C8.96114 16.4232 8.9025 16.2878 8.9025 16.1466V15.0805C8.9025 14.9393 8.96114 14.8039 9.06553 14.704C9.16991 14.6042 9.31149 14.5481 9.45912 14.5481H10.0157V11.7094H9.45912C9.31149 11.7094 9.16991 11.6533 9.06553 11.5534C8.96114 11.4536 8.9025 11.3182 8.9025 11.1769V10.1127C8.9025 9.97154 8.96114 9.83612 9.06553 9.73627C9.16991 9.63642 9.31149 9.58033 9.45912 9.58033H12.4269C12.5745 9.58033 12.7161 9.63642 12.8204 9.73627C12.9248 9.83612 12.9835 9.97154 12.9835 10.1127V14.5481H13.5401C13.6877 14.5481 13.8293 14.6042 13.9337 14.704C14.0381 14.8039 14.0967 14.9393 14.0967 15.0805V16.1466Z" fill="black"/>
</svg>
