<svg width="22" height="22" viewBox="0 0 22 22" fill="none" xmlns="http://www.w3.org/2000/svg">
<path d="M11 1.0252e-07C8.83232 1.0252e-07 6.71332 0.642793 4.91096 1.84709C3.10859 3.05139 1.70382 4.76311 0.874286 6.76579C0.0447497 8.76847 -0.172295 10.9722 0.250599 13.0982C0.673493 15.2242 1.71733 17.1771 3.25011 18.7099C4.7829 20.2427 6.73578 21.2865 8.86181 21.7094C10.9878 22.1323 13.1915 21.9153 15.1942 21.0857C17.1969 20.2562 18.9086 18.8514 20.1129 17.049C21.3172 15.2467 21.96 13.1277 21.96 10.96C21.9602 9.52065 21.6768 8.09537 21.1261 6.76555C20.5754 5.43574 19.7681 4.22744 18.7503 3.20967C17.7326 2.1919 16.5243 1.3846 15.1944 0.833879C13.8646 0.283157 12.4393 -0.000196771 11 1.0252e-07ZM18.551 13.9051C18.1238 13.768 17.3025 13.726 16.9967 13.3573C16.8468 13.173 16.9443 12.4828 16.9443 12.4828C17.5073 12.5159 18.0695 12.4053 18.578 12.1613C18.7833 12.0399 18.6889 12.0189 18.5832 11.8398C18.0092 10.8753 18.267 9.65304 18.2407 8.59414C18.274 8.14724 18.1951 7.6991 18.0111 7.29049C17.8271 6.88187 17.5438 6.52575 17.1871 6.2545C16.6757 5.99386 16.1059 5.86872 15.5324 5.89105C15.0785 5.88058 14.6266 5.95374 14.1992 6.10687C11.9652 7.00616 13.2827 9.96404 12.5183 11.6607C12.3864 11.9455 12.1968 12.0451 12.5288 12.2137C13.0103 12.4213 13.5273 12.5341 14.0516 12.5457C14.0516 12.5457 14.0673 13.2097 14.0516 13.2779C13.9939 13.5364 13.4296 13.7155 13.219 13.7733C12.9247 13.8541 12.636 13.9542 12.3549 14.073C12.3131 14.0903 12.278 14.1207 12.2549 14.1596C12.2317 14.1984 12.2218 14.2438 12.2265 14.2888C12.2312 14.3338 12.2504 14.376 12.2811 14.4093C12.3118 14.4425 12.3524 14.4649 12.3969 14.4732C12.6025 14.5076 12.8052 14.5577 13.0032 14.6231C13.9063 14.8583 14.7382 15.3105 15.4267 15.9405C16.056 16.567 16.4313 17.4041 16.4804 18.2906C16.4915 18.4085 16.4704 18.5271 16.4193 18.6339C16.3682 18.7407 16.2891 18.8316 16.1904 18.8969L15.8906 19.0865C15.868 19.0995 15.8425 19.1065 15.8164 19.1066C15.7904 19.1067 15.7648 19.1001 15.7421 19.0873C15.7194 19.0745 15.7004 19.056 15.687 19.0337C15.6736 19.0114 15.6663 18.9859 15.6658 18.9599C15.6731 18.2071 15.4437 17.471 15.0098 16.8558C14.576 16.2405 13.9597 15.7772 13.2482 15.5313C12.537 15.284 11.7674 15.2676 11.0562 15.0203C10.8404 14.9453 10.4132 14.8569 10.324 14.6096C10.2563 14.3551 10.2226 14.0928 10.2236 13.8295C10.2131 13.6296 10.2079 13.4298 10.2079 13.2299C10.2079 13.098 10.5451 12.8193 10.6186 12.6979C10.8554 12.1804 10.9793 11.6183 10.982 11.0492C11.4407 11.1758 11.4984 10.3275 11.5778 10.069C11.6355 9.88985 11.8416 8.96734 11.4407 8.8257C11.5624 8.58334 11.6386 8.3207 11.6655 8.05082C11.802 7.36505 11.7823 6.65733 11.6078 5.98022C11.3812 5.33499 10.9576 4.77725 10.3969 4.3858C9.83612 3.99436 9.16656 3.78899 8.48276 3.79872C7.78693 3.74019 7.0902 3.90057 6.48999 4.25744C5.88979 4.61432 5.41611 5.14984 5.13519 5.78913C4.917 6.46037 4.86556 7.17464 4.98531 7.87021C5.00634 8.20104 5.09028 8.52482 5.23261 8.8242C4.89538 8.97408 4.9958 9.75721 5.0535 9.94831C5.13818 10.2173 5.21163 11.1811 5.69124 11.0499C5.72276 11.4819 5.79146 11.9104 5.89658 12.3307C5.98404 12.604 6.13181 12.8542 6.32898 13.0628C6.42416 13.1685 6.47137 13.179 6.46612 13.3154C6.4829 13.7358 6.44919 14.1567 6.3657 14.5691C6.26004 14.9693 5.38024 15.1379 5.02727 15.2121C4.27439 15.3065 3.53941 15.5108 2.84577 15.8184C1.99199 14.3844 1.53153 12.7506 1.51082 11.0818C1.49012 9.41302 1.90991 7.7683 2.72784 6.31356C3.54577 4.85883 4.73291 3.64556 6.16948 2.79614C7.60605 1.94672 9.24124 1.49121 10.9101 1.47557C13.4251 1.45516 15.846 2.43069 17.6442 4.18915C19.009 5.52943 19.9377 7.2502 20.3092 9.12663C20.6806 11.0031 20.4773 12.9479 19.726 14.707C19.4207 14.3311 19.0123 14.0525 18.551 13.9051Z" fill="white"/>
</svg>
