<svg width="245" height="240" viewBox="0 0 245 240" fill="none" xmlns="http://www.w3.org/2000/svg">
<path d="M122.5 1.12248e-06C98.2718 1.12248e-06 74.5877 7.03788 54.4427 20.2236C34.2977 33.4094 18.5965 52.1508 9.32481 74.078C0.053077 96.0051 -2.37283 120.133 2.35386 143.411C7.08055 166.689 18.7475 188.07 35.8795 204.853C53.0114 221.635 74.8388 233.064 98.6015 237.694C122.364 242.324 146.995 239.948 169.379 230.865C191.763 221.783 210.895 206.402 224.355 186.668C237.816 166.934 245 143.734 245 120C245.002 104.241 241.835 88.6355 235.68 74.0754C229.524 59.5154 220.501 46.2858 209.126 35.1424C197.75 23.9989 184.245 15.1599 169.381 9.13006C154.518 3.10026 138.588 -0.00215443 122.5 1.12248e-06ZM206.897 152.246C202.123 150.745 192.943 150.285 189.525 146.248C187.85 144.23 188.939 136.673 188.939 136.673C195.232 137.036 201.516 135.824 207.199 133.153C209.494 131.824 208.438 131.594 207.257 129.633C200.841 119.073 203.723 105.69 203.43 94.0964C203.802 89.2033 202.92 84.2967 200.863 79.8228C198.806 75.349 195.64 71.4498 191.653 68.48C185.937 65.6262 179.569 64.2561 173.158 64.5005C168.086 64.3859 163.034 65.187 158.257 66.8636C133.288 76.7097 148.014 109.095 139.47 127.672C137.996 130.79 135.877 131.881 139.587 133.727C144.969 136 150.748 137.234 156.607 137.362C156.607 137.362 156.783 144.632 156.607 145.378C155.962 148.209 149.655 150.17 147.302 150.802C144.012 151.687 140.786 152.783 137.644 154.084C137.177 154.274 136.784 154.606 136.526 155.032C136.267 155.457 136.156 155.954 136.209 156.446C136.261 156.939 136.475 157.402 136.818 157.766C137.162 158.13 137.616 158.375 138.113 158.466C140.411 158.842 142.677 159.391 144.889 160.107C154.983 162.682 164.282 167.633 171.977 174.531C179.01 181.391 183.205 190.556 183.754 200.263C183.878 201.553 183.642 202.852 183.071 204.021C182.5 205.19 181.616 206.185 180.513 206.9L177.162 208.976C176.91 209.119 176.624 209.195 176.333 209.196C176.042 209.198 175.756 209.125 175.502 208.985C175.248 208.845 175.036 208.643 174.887 208.398C174.737 208.153 174.656 207.875 174.649 207.59C174.732 199.348 172.167 191.289 167.318 184.552C162.469 177.816 155.581 172.743 147.628 170.051C139.679 167.344 131.077 167.163 123.128 164.455C120.716 163.635 115.942 162.667 114.945 159.959C114.188 157.173 113.811 154.301 113.822 151.417C113.705 149.229 113.647 147.041 113.647 144.853C113.647 143.409 117.416 140.357 118.237 139.028C120.884 133.362 122.269 127.208 122.299 120.976C127.425 122.363 128.07 113.075 128.958 110.244C129.603 108.283 131.906 98.1825 127.425 96.6318C128.786 93.9782 129.637 91.1025 129.938 88.1477C131.464 80.6392 131.243 72.8905 129.293 65.4769C126.761 58.4123 122.026 52.3057 115.759 48.0198C109.491 43.7338 102.008 41.4853 94.3648 41.5918C86.5875 40.9509 78.8002 42.707 72.0916 46.6143C65.3831 50.5217 60.0888 56.3851 56.9489 63.3846C54.5103 70.7339 53.9353 78.5544 55.2737 86.1702C55.5088 89.7924 56.447 93.3374 58.0378 96.6154C54.2686 98.2564 55.391 106.831 56.0359 108.923C56.9824 111.869 57.8033 122.42 63.164 120.985C63.5162 125.715 64.2841 130.406 65.459 135.007C66.4366 138 68.0882 140.74 70.292 143.024C71.3558 144.18 71.8835 144.295 71.8248 145.789C72.0124 150.392 71.6355 155.001 70.7024 159.516C69.5214 163.897 59.6879 165.744 55.7428 166.556C47.3278 167.59 39.1129 169.826 31.36 173.194C21.8175 157.493 16.6708 139.605 16.4394 121.334C16.208 103.062 20.9 85.0543 30.042 69.1266C39.184 53.1989 52.4526 39.9149 68.5092 30.6147C84.5658 21.3145 102.842 16.3272 121.495 16.1559C149.605 15.9324 176.664 26.6134 196.762 45.8667C212.016 60.5412 222.397 79.3817 226.548 99.9266C230.7 120.471 228.428 141.765 220.031 161.026C216.618 156.91 212.054 153.859 206.897 152.246Z" fill="white" fill-opacity="0.44"/>
</svg>
