<svg width="36" height="40" viewBox="0 0 36 40" fill="none" xmlns="http://www.w3.org/2000/svg">
<path d="M18.0908 0.357642C8.41224 1.5935 0.5 9.19469 0.5 19.998C0.5 30.8013 8.41224 38.3997 18.0908 39.6411C27.0167 40.7853 32.4545 38.9357 35.4038 37.5499V22.5391H33.4237V22.5364C25.0199 22.5364 18.2352 28.3213 18.2352 37.7249C16.8299 37.4832 15.7718 37.2999 14.3221 36.6834C14.3916 36.1002 14.4054 28.1824 14.4027 19.998C14.4054 11.8136 14.3916 3.89579 14.3221 3.31258C15.7718 2.69604 16.8299 2.51275 18.2352 2.27113C18.2352 11.6747 25.0199 17.4596 33.4237 17.4596H35.4066V2.4461C32.4545 1.06027 27.0195 -0.786564 18.0908 0.357642Z" fill="white"/>
</svg>
