<svg width="224" height="91" viewBox="0 0 224 91" fill="none" xmlns="http://www.w3.org/2000/svg">
<path d="M72.1488 68.8106C72.2112 71.5817 72.2112 75.0815 72.2112 79.7456C72.2112 84.413 72.2112 87.8828 72.1488 90.6806H75.6853C75.5899 87.8529 75.5899 84.3531 75.5899 79.7456C75.5899 75.0515 75.5899 71.5817 75.6853 68.8106H72.1488ZM90.3851 68.8106C90.4805 71.0561 90.5795 76.6251 90.5795 80.7968C90.5795 82.6332 90.7079 84.4696 90.8693 86.4557H90.8363C90.3851 84.8222 89.8385 83.0723 89.2588 81.6718C87.1054 76.5985 84.1779 70.5604 83.569 68.8106H79.3868C79.4492 71.3755 79.4492 75.1081 79.4492 79.7456C79.4492 84.413 79.4162 87.8828 79.3868 90.6806H82.4427C82.4097 88.9607 82.4097 84.6459 82.3767 78.6378C82.3437 76.4787 82.2483 74.293 82.1199 72.0175H82.1529C82.6041 73.8539 83.1838 75.7502 83.9541 77.5865C86.236 82.397 88.9727 88.4351 89.8385 90.6806H93.4079C93.3749 87.8529 93.3749 84.5561 93.3749 79.7156C93.3749 75.0782 93.4079 71.0262 93.4373 68.8106H90.3851ZM104.703 83.6246C104.252 85.5508 103.962 87.0378 103.738 88.1723H103.61C103.386 87.0644 103.096 85.5474 102.645 83.6811C101.585 78.518 100.074 71.1725 99.7508 68.8106H95.7961C97.1792 73.3582 100.33 87.5302 101.068 90.6806C101.519 90.6507 102.289 90.6507 103.61 90.6507C104.575 90.6507 105.474 90.6507 106.116 90.6806C106.857 87.5302 110.008 73.9138 111.325 68.8106H107.627C107.279 70.9962 105.734 78.4615 104.703 83.6246ZM113.647 68.8106C113.746 71.1725 113.713 75.1081 113.713 79.7456C113.713 80.9565 113.717 82.1176 113.717 83.2154C113.717 83.6113 113.717 83.9972 113.717 84.3731C113.717 84.443 113.717 84.5162 113.717 84.586C113.717 87.0012 113.647 90.6773 113.647 90.6773H125.61C125.577 90.3845 125.577 89.8024 125.577 89.3666C125.577 88.9008 125.577 87.9826 125.61 87.6333C122.492 87.6899 119.469 87.9361 117.055 87.9361V80.8833C118.075 80.8833 117.914 80.8867 118.959 80.8867C120.937 80.8867 125.61 81.1262 125.61 81.1262V78.0955C125.61 78.0955 120.937 78.335 118.959 78.335C117.914 78.335 118.079 78.3384 117.055 78.3384V71.5451C119.469 71.5451 122.488 71.7913 125.61 71.8479C125.577 71.4986 125.577 70.5804 125.577 70.1146C125.577 69.6788 125.577 69.0933 125.61 68.8039H113.647V68.8106ZM51.2749 68.8106C51.374 71.1725 51.341 75.1081 51.341 79.7456C51.341 80.9565 51.3446 82.1176 51.3446 83.2154C51.3446 83.6113 51.3446 83.9972 51.3446 84.3731C51.3446 84.443 51.3446 84.5162 51.3446 84.586C51.3446 87.0012 51.2749 90.6773 51.2749 90.6773H63.238C63.205 90.3845 63.205 89.8024 63.205 89.3666C63.205 88.9008 63.205 87.9826 63.238 87.6333C60.1198 87.6899 57.0969 87.9361 54.683 87.9361V80.8833C55.7028 80.8833 55.5414 80.8867 56.587 80.8867C58.5643 80.8867 63.238 81.1262 63.238 81.1262V78.0955C63.238 78.0955 58.5643 78.335 56.587 78.335C55.5414 78.335 55.7065 78.3384 54.683 78.3384V71.5451C57.0969 71.5451 60.1161 71.7913 63.238 71.8479C63.205 71.4986 63.205 70.5804 63.205 70.1146C63.205 69.6788 63.205 69.0933 63.238 68.8039H51.2749V68.8106ZM26.3106 68.8106C26.373 71.5817 26.373 75.0815 26.373 79.7456C26.373 84.4097 26.373 87.8828 26.3106 90.6806H29.8471C29.7481 87.8529 29.7481 84.3531 29.7481 79.7456C29.7481 75.0515 29.7481 71.5817 29.8471 68.8106H26.3106ZM17.7226 83.2154C17.4328 85.1682 17.209 86.7717 17.0806 87.9993H16.9192C16.7578 86.775 16.567 85.1715 16.2442 83.1888C15.4078 77.999 14.443 71.0295 14.1862 68.8139H10.0371C9.8133 71.1459 8.62103 78.1754 7.88366 83.1322C7.59384 85.0285 7.33705 86.6619 7.17563 87.9161H7.01422C6.88582 86.6918 6.69139 85.0584 6.40157 83.1322C5.59817 77.9425 4.47193 70.7101 4.31051 68.8139H0C1.09322 73.2185 3.92532 87.0678 4.72873 90.684C5.11392 90.654 5.69355 90.654 6.596 90.654C7.30403 90.654 8.10744 90.654 8.71641 90.684C9.10161 88.5249 10.1325 82.723 10.9359 77.9691C11.2587 76.1627 11.5155 73.9437 11.7063 72.2238H11.8016C11.9961 73.9138 12.2529 76.0729 12.5427 77.9392C13.2507 82.6033 14.2155 88.7578 14.5347 90.684C14.9859 90.654 15.7893 90.654 16.8495 90.654C17.5576 90.654 18.2326 90.654 18.7168 90.684C19.3918 87.2707 22.4807 73.2751 23.4785 68.8139H19.843C19.5862 71.0561 18.46 78.172 17.7226 83.2154ZM44.5469 68.8106C44.6423 71.0561 44.7413 76.6251 44.7413 80.7968C44.7413 82.6332 44.8697 84.4696 45.0311 86.4557H44.9981C44.5469 84.8222 44.0003 83.0723 43.4206 81.6718C41.2672 76.5985 38.3397 70.5604 37.7271 68.8106H33.545C33.611 71.3755 33.611 75.1081 33.611 79.7456C33.611 84.4097 33.578 87.8828 33.545 90.6806H36.6009C36.5678 88.9607 36.5678 84.6459 36.5385 78.6378C36.5055 76.4787 36.4101 74.293 36.2817 72.0175H36.3147C36.7659 73.8539 37.3419 75.7502 38.116 77.5865C40.3978 82.397 43.1308 88.4351 44.0003 90.6806H47.5697C47.5367 87.8529 47.5367 84.5561 47.5367 79.7156C47.5367 75.0782 47.5697 71.0262 47.5991 68.8106H44.5469ZM143.27 68.8106C143.304 69.1599 143.304 69.6855 143.304 70.1812C143.304 70.617 143.304 71.2025 143.27 71.5817C144.877 71.5518 146.455 71.5518 147.838 71.5518C147.838 79.047 147.838 88.9308 147.742 90.6806C148.256 90.6507 148.964 90.6507 149.478 90.6507C149.991 90.6507 150.732 90.6507 151.246 90.6806C151.15 88.9308 151.15 79.047 151.15 71.5518C152.534 71.5518 154.107 71.5518 155.685 71.5817C155.652 71.2025 155.652 70.6203 155.652 70.1812C155.652 69.6855 155.652 69.1599 155.685 68.8106H143.27ZM135.424 78.2885C132.048 77.0343 131.469 75.5472 131.469 73.7674C131.469 71.9876 132.5 71.1127 134.653 71.1127C137.129 71.1127 138.094 72.1639 138.094 74.3795C138.094 74.9052 138.061 75.5738 138.032 76.186C138.45 76.186 139.03 76.156 139.639 76.156C140.218 76.156 140.765 76.156 141.15 76.186C141.183 75.4574 141.212 74.9318 141.212 74.2332C141.212 70.414 139.283 68.4879 134.62 68.4879C130.343 68.4879 128.156 70.4141 128.156 73.7674C128.156 77.1208 129.668 79.22 134.136 80.8534C137.353 82.0211 138.252 83.5946 138.252 85.6073C138.252 87.4437 137.32 88.3785 134.906 88.3785C132.335 88.3785 131.304 87.3871 131.304 84.6459C131.304 84.2666 131.304 83.7111 131.337 83.2154C130.853 83.2453 130.244 83.2453 129.569 83.2453C128.956 83.2453 128.409 83.2154 127.991 83.1855C127.958 83.8575 127.925 84.2933 127.925 85.1682C127.925 88.7844 129.921 91 134.903 91C139.342 91 141.429 88.9008 141.429 85.431C141.436 81.9612 139.54 79.7755 135.424 78.2885ZM179.732 68.8106C179.831 71.1725 179.798 75.1081 179.798 79.7456C179.798 80.9565 179.802 82.1176 179.802 83.2154C179.802 83.6113 179.802 83.9972 179.802 84.3731C179.802 84.443 179.802 84.5162 179.802 84.586C179.802 87.0012 179.732 90.6773 179.732 90.6773H191.695C191.662 90.3845 191.662 89.8024 191.662 89.3666C191.662 88.9008 191.662 87.9826 191.695 87.6333C188.577 87.6899 185.554 87.9361 183.14 87.9361V80.8833C184.16 80.8833 183.998 80.8867 185.044 80.8867C187.021 80.8867 191.178 81.1262 191.178 81.1262V78.0955C191.178 78.0955 187.021 78.335 185.044 78.335C183.998 78.335 184.164 78.3384 183.14 78.3384V71.5451C185.554 71.5451 188.573 71.7913 191.695 71.8479C191.662 71.4986 191.662 70.5804 191.662 70.1146C191.662 69.6788 191.662 69.0933 191.695 68.8039H179.732V68.8106ZM205.885 68.8106C205.98 71.0561 206.079 76.6251 206.079 80.7968C206.079 82.6332 206.208 84.4696 206.369 86.4557H206.336C205.885 84.8222 205.338 83.0723 204.759 81.6718C202.605 76.5985 199.678 70.5604 199.065 68.8106H194.883C194.949 71.3755 194.949 75.1081 194.949 79.7456C194.949 84.413 194.916 87.8828 194.883 90.6806H197.939C197.906 88.9607 197.906 84.6459 197.876 78.6378C197.843 76.4787 197.748 74.293 197.62 72.0175H197.653C198.104 73.8539 198.684 75.7502 199.454 77.5865C201.736 82.397 204.469 88.4351 205.338 90.6806H208.908C208.875 87.8529 208.875 84.5561 208.875 79.7156C208.875 75.0782 208.908 71.0262 208.941 68.8106H205.885ZM223.967 70.1812C223.967 69.6855 223.967 69.1599 224 68.8106H211.586C211.619 69.1599 211.619 69.6855 211.619 70.1812C211.619 70.617 211.619 71.2025 211.586 71.5817C213.193 71.5518 214.77 71.5518 216.153 71.5518C216.153 79.047 216.153 88.9308 216.058 90.6806C216.571 90.6507 217.279 90.6507 217.793 90.6507C218.306 90.6507 219.048 90.6507 219.561 90.6806C219.466 88.9308 219.466 79.047 219.466 71.5518C220.849 71.5518 222.426 71.5518 224 71.5817C223.967 71.2025 223.967 70.617 223.967 70.1812ZM176.452 68.8106H172.402C171.76 70.8532 170.15 76.1294 168.671 80.9133C168.319 82.0211 167.963 83.4782 167.64 84.8788H167.479C167.189 83.4782 166.804 81.9047 166.514 80.8534C164.97 76.0995 163.363 70.7634 162.754 68.8106H158.348C158.41 71.6682 158.41 74.9351 158.41 79.7156C158.41 84.3531 158.41 87.5302 158.348 90.6806H161.338C161.305 86.1895 161.243 83.1555 161.243 78.4049C161.21 76.3357 161.081 74.0901 161.048 71.8446H161.144C161.529 73.7408 162.042 75.9564 162.527 77.6198L166.514 90.684H168.026L171.98 77.8227C172.432 76.2758 172.912 73.9437 173.33 71.9044H173.426C173.36 74.0336 173.231 76.3357 173.231 78.2619C173.231 82.9858 173.198 86.1928 173.07 90.684H176.478C176.412 87.5335 176.383 84.3565 176.383 79.719C176.39 74.9351 176.423 71.6682 176.452 68.8106ZM62.8198 55.4403V37.4592H60.2041V37.4559C49.1032 37.4559 40.141 44.3855 40.141 55.6499C38.2847 55.3605 36.887 55.1409 34.972 54.4024C35.0637 53.7038 35.0821 44.2192 35.0784 34.4153C35.0821 24.6113 35.0637 15.1267 34.972 14.4281C36.887 13.6896 38.2847 13.47 40.141 13.1806C40.141 24.445 49.1032 31.3746 60.2041 31.3746H62.8235V13.3902C58.9238 11.7301 51.7408 9.51784 39.9465 10.8885C27.1617 12.3689 16.7101 21.4775 16.7101 34.4186C16.7101 47.3597 27.1617 56.4616 39.9465 57.9487C51.7372 59.316 58.9238 57.1004 62.8198 55.4403ZM200.14 50.9592L200.037 39.6915L198.163 39.7347L188.628 44.2325C186.005 45.4701 184.358 47.9285 184.358 50.6066V53.3012L179.464 53.3977L179.453 20.4329H200.096V11.3841H179.057V0H172.688C166.932 7.63157 160.021 13.8626 152.57 18.8061V20.4362H160.461V39.5418C160.461 53.4875 167.655 58.3745 180.444 58.3745C185.44 58.3745 189.633 57.7491 193.958 55.6333C198.43 53.4443 200.14 50.9592 200.14 50.9592ZM153.597 46.7775H145.651V0.0432478L126.663 0V39.7647C126.663 51.4349 132.936 58.0053 143.05 58.3779H153.594V46.7775H153.597ZM86.5148 58.3745C90.4474 58.3745 99.6958 58.827 104.054 49.7117H107.191V57.9554H118.989V11.4706H100.404V39.1792C100.686 52.7956 94.9744 52.3132 93.0154 51.914C89.3175 51.1555 88.914 46.1021 88.914 37.8219V11.474H70.3293V43.5272C70.3293 53.2114 76.0228 58.3745 86.5148 58.3745Z" fill="black"/>
</svg>
