<svg width="108" height="49" viewBox="0 0 108 49" fill="none" xmlns="http://www.w3.org/2000/svg">
<path d="M34.8539 36.7957C34.8837 38.2574 34.8837 40.1034 34.8837 42.5636C34.8837 45.0256 34.8837 46.8558 34.8539 48.3315H36.5455C36.4998 46.84 36.4998 44.994 36.4998 42.5636C36.4998 40.0876 36.4998 38.2574 36.5455 36.7957H34.8539ZM43.5768 36.7957C43.6224 37.9801 43.6698 40.9176 43.6698 43.1181C43.6698 44.0868 43.7312 45.0554 43.8084 46.103H43.7927C43.5768 45.2414 43.3154 44.3184 43.0381 43.5796C42.0081 40.9036 40.6077 37.7187 40.3165 36.7957H38.316C38.3458 38.1486 38.3458 40.1175 38.3458 42.5636C38.3458 45.0256 38.3301 46.8558 38.316 48.3315H39.7777C39.7619 47.4243 39.7619 45.1484 39.7462 41.9793C39.7304 40.8404 39.6847 39.6875 39.6233 38.4873H39.6391C39.8549 39.4559 40.1322 40.4561 40.5007 41.4248C41.5922 43.9622 42.9012 47.1471 43.3154 48.3315H45.0227C45.007 46.84 45.007 45.101 45.007 42.5478C45.007 40.1017 45.0227 37.9644 45.0368 36.7957H43.5768ZM50.4257 44.6097C50.2099 45.6257 50.0712 46.4101 49.9642 47.0084H49.9028C49.7957 46.4241 49.6571 45.6239 49.4413 44.6395C48.9341 41.9161 48.2112 38.0416 48.0567 36.7957H46.1651C46.8267 39.1945 48.334 46.6698 48.6867 48.3315C48.9025 48.3157 49.271 48.3157 49.9028 48.3157C50.3643 48.3157 50.7942 48.3157 51.1013 48.3315C51.4557 46.6698 52.9631 39.4875 53.593 36.7957H51.8242C51.6575 37.9486 50.9188 41.8863 50.4257 44.6097ZM54.7038 36.7957C54.7512 38.0416 54.7354 40.1175 54.7354 42.5636C54.7354 43.2023 54.7372 43.8148 54.7372 44.3938C54.7372 44.6027 54.7372 44.8062 54.7372 45.0045C54.7372 45.0413 54.7372 45.0799 54.7372 45.1168C54.7372 46.3908 54.7038 48.3298 54.7038 48.3298H60.4261C60.4103 48.1754 60.4103 47.8683 60.4103 47.6384C60.4103 47.3927 60.4103 46.9084 60.4261 46.7242C58.9346 46.754 57.4886 46.8839 56.334 46.8839V43.1637C56.8218 43.1637 56.7446 43.1655 57.2447 43.1655C58.1905 43.1655 60.4261 43.2918 60.4261 43.2918V41.6932C60.4261 41.6932 58.1905 41.8196 57.2447 41.8196C56.7446 41.8196 56.8236 41.8213 56.334 41.8213V38.2381C57.4886 38.2381 58.9328 38.368 60.4261 38.3978C60.4103 38.2135 60.4103 37.7292 60.4103 37.4835C60.4103 37.2537 60.4103 36.9448 60.4261 36.7922H54.7038V36.7957ZM24.8692 36.7957C24.9166 38.0416 24.9008 40.1175 24.9008 42.5636C24.9008 43.2023 24.9025 43.8148 24.9025 44.3938C24.9025 44.6027 24.9025 44.8062 24.9025 45.0045C24.9025 45.0413 24.9025 45.0799 24.9025 45.1168C24.9025 46.3908 24.8692 48.3298 24.8692 48.3298H30.5915C30.5757 48.1754 30.5757 47.8683 30.5757 47.6384C30.5757 47.3927 30.5757 46.9084 30.5915 46.7242C29.1 46.754 27.654 46.8839 26.4994 46.8839V43.1637C26.9872 43.1637 26.91 43.1655 27.4101 43.1655C28.3559 43.1655 30.5915 43.2918 30.5915 43.2918V41.6932C30.5915 41.6932 28.3559 41.8196 27.4101 41.8196C26.91 41.8196 26.989 41.8213 26.4994 41.8213V38.2381C27.654 38.2381 29.0982 38.368 30.5915 38.3978C30.5757 38.2135 30.5757 37.7292 30.5757 37.4835C30.5757 37.2537 30.5757 36.9448 30.5915 36.7922H24.8692V36.7957ZM12.928 36.7957C12.9578 38.2574 12.9578 40.1034 12.9578 42.5636C12.9578 45.0238 12.9578 46.8558 12.928 48.3315H14.6196C14.5722 46.84 14.5722 44.994 14.5722 42.5636C14.5722 40.0876 14.5722 38.2574 14.6196 36.7957H12.928ZM8.82007 44.3938C8.68145 45.4239 8.5744 46.2697 8.51299 46.9172H8.43578C8.35857 46.2714 8.26732 45.4256 8.1129 44.3798C7.71281 41.6424 7.25131 37.9661 7.12847 36.7974H5.14383C5.03679 38.0275 4.46649 41.7354 4.11378 44.35C3.97515 45.3502 3.85232 46.2118 3.77511 46.8733H3.6979C3.63648 46.2276 3.54348 45.366 3.40485 44.35C3.02055 41.6125 2.48184 37.7977 2.40463 36.7974H0.342773C0.865695 39.1208 2.22038 46.4259 2.60467 48.3333C2.78892 48.3175 3.06618 48.3175 3.49785 48.3175C3.83652 48.3175 4.22082 48.3175 4.51211 48.3333C4.69636 47.1944 5.18945 44.1341 5.57375 41.6266C5.72817 40.6737 5.851 39.5033 5.94225 38.5961H5.98787C6.08087 39.4875 6.20371 40.6263 6.34233 41.6108C6.68101 44.071 7.14251 47.3173 7.29518 48.3333C7.51101 48.3175 7.89531 48.3175 8.40244 48.3175C8.74111 48.3175 9.06398 48.3175 9.29561 48.3333C9.61849 46.5329 11.096 39.1506 11.5733 36.7974H9.83433C9.7115 37.9801 9.17278 41.7336 8.82007 44.3938ZM21.651 36.7957C21.6966 37.9801 21.744 40.9176 21.744 43.1181C21.744 44.0868 21.8054 45.0554 21.8826 46.103H21.8668C21.651 45.2414 21.3895 44.3184 21.1122 43.5796C20.0822 40.9036 18.6819 37.7187 18.3888 36.7957H16.3884C16.42 38.1486 16.42 40.1175 16.42 42.5636C16.42 45.0238 16.4042 46.8558 16.3884 48.3315H17.8501C17.8343 47.4243 17.8343 45.1484 17.8203 41.9793C17.8045 40.8404 17.7589 39.6875 17.6975 38.4873H17.7132C17.9291 39.4559 18.2046 40.4561 18.5748 41.4248C19.6663 43.9622 20.9736 47.1471 21.3895 48.3315H23.0969C23.0811 46.84 23.0811 45.101 23.0811 42.5478C23.0811 40.1017 23.0969 37.9644 23.1109 36.7957H21.651ZM68.8736 36.7957C68.8894 36.9799 68.8894 37.2572 68.8894 37.5186C68.8894 37.7485 68.8894 38.0574 68.8736 38.2574C69.6422 38.2416 70.3967 38.2416 71.0583 38.2416C71.0583 42.1951 71.0583 47.4085 71.0127 48.3315C71.2583 48.3157 71.597 48.3157 71.8427 48.3157C72.0883 48.3157 72.4428 48.3157 72.6885 48.3315C72.6428 47.4085 72.6428 42.1951 72.6428 38.2416C73.3044 38.2416 74.0572 38.2416 74.8117 38.2574C74.7959 38.0574 74.796 37.7503 74.796 37.5186C74.796 37.2572 74.7959 36.9799 74.8117 36.7957H68.8736ZM65.1201 41.795C63.5057 41.1335 63.2285 40.3491 63.2285 39.4103C63.2285 38.4715 63.7216 38.01 64.7516 38.01C65.9361 38.01 66.3976 38.5645 66.3976 39.7332C66.3976 40.0104 66.3818 40.3631 66.3678 40.686C66.5678 40.686 66.8451 40.6702 67.1364 40.6702C67.4136 40.6702 67.6751 40.6702 67.8593 40.686C67.8751 40.3017 67.8892 40.0245 67.8892 39.656C67.8892 37.6415 66.9662 36.6255 64.7358 36.6255C62.6898 36.6255 61.6439 37.6415 61.6439 39.4103C61.6439 41.1791 62.3669 42.2864 64.5042 43.1479C66.0432 43.7639 66.4731 44.5939 66.4731 45.6555C66.4731 46.6241 66.0274 47.1172 64.8727 47.1172C63.6426 47.1172 63.1495 46.5943 63.1495 45.1484C63.1495 44.9483 63.1495 44.6553 63.1653 44.3938C62.9337 44.4096 62.6424 44.4096 62.3195 44.4096C62.0265 44.4096 61.765 44.3938 61.565 44.378C61.5492 44.7325 61.5334 44.9624 61.5334 45.4239C61.5334 47.3313 62.488 48.5 64.871 48.5C66.9942 48.5 67.9927 47.3927 67.9927 45.5625C67.9962 43.7323 67.089 42.5794 65.1201 41.795ZM86.3143 36.7957C86.3616 38.0416 86.3458 40.1175 86.3458 42.5636C86.3458 43.2023 86.3476 43.8148 86.3476 44.3938C86.3476 44.6027 86.3476 44.8062 86.3476 45.0045C86.3476 45.0413 86.3476 45.0799 86.3476 45.1168C86.3476 46.3908 86.3143 48.3298 86.3143 48.3298H92.0366C92.0208 48.1754 92.0208 47.8683 92.0208 47.6384C92.0208 47.3927 92.0208 46.9084 92.0366 46.7242C90.545 46.754 89.0991 46.8839 87.9444 46.8839V43.1637C88.4323 43.1637 88.3551 43.1655 88.8552 43.1655C89.801 43.1655 91.7891 43.2918 91.7891 43.2918V41.6932C91.7891 41.6932 89.801 41.8196 88.8552 41.8196C88.3551 41.8196 88.434 41.8213 87.9444 41.8213V38.2381C89.0991 38.2381 90.5433 38.368 92.0366 38.3978C92.0208 38.2135 92.0208 37.7292 92.0208 37.4835C92.0208 37.2537 92.0208 36.9448 92.0366 36.7922H86.3143V36.7957ZM98.824 36.7957C98.8696 37.9801 98.917 40.9176 98.917 43.1181C98.917 44.0868 98.9784 45.0554 99.0556 46.103H99.0399C98.824 45.2414 98.5626 44.3184 98.2853 43.5796C97.2553 40.9036 95.8549 37.7187 95.5619 36.7957H93.5615C93.593 38.1486 93.593 40.1175 93.593 42.5636C93.593 45.0256 93.5773 46.8558 93.5615 48.3315H95.0232C95.0074 47.4243 95.0074 45.1484 94.9934 41.9793C94.9776 40.8404 94.9319 39.6875 94.8705 38.4873H94.8863C95.1022 39.4559 95.3794 40.4561 95.7479 41.4248C96.8394 43.9622 98.1467 47.1471 98.5626 48.3315H100.27C100.254 46.84 100.254 45.101 100.254 42.5478C100.254 40.1017 100.27 37.9644 100.286 36.7957H98.824ZM107.473 37.5186C107.473 37.2572 107.473 36.9799 107.489 36.7957H101.551C101.567 36.9799 101.567 37.2572 101.567 37.5186C101.567 37.7485 101.567 38.0574 101.551 38.2574C102.32 38.2416 103.074 38.2416 103.736 38.2416C103.736 42.1951 103.736 47.4085 103.69 48.3315C103.936 48.3157 104.274 48.3157 104.52 48.3157C104.766 48.3157 105.12 48.3157 105.366 48.3315C105.32 47.4085 105.32 42.1951 105.32 38.2416C105.982 38.2416 106.736 38.2416 107.489 38.2574C107.473 38.0574 107.473 37.7485 107.473 37.5186ZM84.7455 36.7957H82.8082C82.5011 37.8731 81.7308 40.6562 81.0236 43.1795C80.8552 43.7639 80.685 44.5325 80.5305 45.2712H80.4533C80.3147 44.5325 80.1304 43.7025 79.9918 43.1479C79.2531 40.6404 78.4845 37.8257 78.1932 36.7957H76.0857C76.1155 38.303 76.1155 40.0262 76.1155 42.5478C76.1155 44.994 76.1155 46.6698 76.0857 48.3315H77.5158C77.5001 45.9626 77.4702 44.3622 77.4702 41.8564C77.4544 40.765 77.393 39.5805 77.3772 38.396H77.4228C77.6071 39.3962 77.8528 40.5649 78.0844 41.4423L79.9918 48.3333H80.7148L82.6064 41.5494C82.8223 40.7334 83.0521 39.5033 83.2522 38.4276H83.2978C83.2662 39.5507 83.2048 40.765 83.2048 41.781C83.2048 44.2728 83.189 45.9644 83.1276 48.3333H84.7578C84.7262 46.6715 84.7122 44.9957 84.7122 42.5496C84.7157 40.0262 84.7315 38.303 84.7455 36.7957ZM30.3915 29.7433V20.2587H29.1403V20.257C23.8304 20.257 19.5435 23.9122 19.5435 29.8538C18.6556 29.7011 17.987 29.5853 17.071 29.1958C17.1149 28.8273 17.1236 23.8244 17.1219 18.6531C17.1236 13.4818 17.1149 8.47894 17.071 8.11044C17.987 7.72088 18.6556 7.60507 19.5435 7.4524C19.5435 13.3941 23.8304 17.0492 29.1403 17.0492H30.3932V7.56295C28.5279 6.68732 25.0921 5.5204 19.4505 6.24336C13.3351 7.02424 8.33575 11.8288 8.33575 18.6549C8.33575 25.4809 13.3351 30.282 19.4505 31.0664C25.0903 31.7876 28.5279 30.6189 30.3915 29.7433ZM96.076 27.3796L96.0269 21.4362L95.1302 21.459L90.5696 23.8314C89.3149 24.4842 88.527 25.781 88.527 27.1936V28.6149L86.1862 28.6658L86.1809 11.2778H96.055V6.50483H85.9914V0.5H82.9451C80.1919 4.52544 76.8859 7.81213 73.3219 10.4197V11.2796H77.0965V21.3572C77.0965 28.7132 80.5376 31.291 86.6547 31.291C89.0447 31.291 91.0504 30.9611 93.1193 29.845C95.2583 28.6904 96.076 27.3796 96.076 27.3796ZM73.8133 25.1738H70.0124V0.522812L60.9297 0.5V21.4748C60.9297 27.6305 63.9304 31.0962 68.7683 31.2927H73.8115V25.1738H73.8133ZM41.7255 31.291C43.6067 31.291 48.0304 31.5296 50.1151 26.7215H51.6154V31.0699H57.2588V6.55045H48.3691V21.1659C48.5042 28.3482 45.772 28.0938 44.835 27.8832C43.0662 27.4831 42.8732 24.8176 42.8732 20.45V6.5522H33.9835V23.4594C33.9835 28.5676 36.7069 31.291 41.7255 31.291Z" fill="white"/>
</svg>
