<svg width="20" height="20" viewBox="0 0 20 20" fill="none" xmlns="http://www.w3.org/2000/svg">
<path fill-rule="evenodd" clip-rule="evenodd" d="M14.1936 12.9738C16.6536 9.98376 16.4936 5.56376 13.7036 2.76375C10.7336 -0.206245 5.92357 -0.206245 2.95357 2.76375C-0.0164258 5.73376 -0.0164258 10.5438 2.95357 13.5138C5.61357 16.1738 9.76357 16.4538 12.7336 14.3338L17.8636 19.4638L19.2736 18.0538L14.1936 12.9738ZM12.2836 12.1038C10.0936 14.2938 6.55357 14.2938 4.36357 12.1038C2.17357 9.91376 2.17357 6.37375 4.36357 4.18375C6.55357 1.99375 10.0936 1.99375 12.2836 4.18375C14.4736 6.37375 14.4736 9.91376 12.2836 12.1038Z" fill="white"/>
</svg>
