<svg width="71" height="72" viewBox="0 0 71 72" fill="none" xmlns="http://www.w3.org/2000/svg">
<g clip-path="url(#clip0_2277_52376)">
<path d="M67.441 32.45C66.4983 32.4489 65.5938 32.8223 64.9264 33.4881C64.259 34.1538 63.8833 35.0573 63.882 36C63.8978 41.6364 62.2408 47.1508 59.1208 51.845C56.0007 56.5392 51.558 60.202 46.355 62.3696C41.152 64.5373 35.4228 65.1124 29.8928 64.022C24.3628 62.9317 19.2807 60.225 15.2899 56.2446C11.2992 52.2642 8.57924 47.1891 7.47451 41.662C6.36978 36.1348 6.92995 30.4042 9.08408 25.1956C11.2382 19.987 14.8894 15.5347 19.5755 12.4024C24.2615 9.27019 29.7715 7.59883 35.408 7.6C37.6837 7.61424 39.951 7.87611 42.17 8.381C42.6335 8.52574 43.1218 8.57388 43.6046 8.52245C44.0874 8.47102 44.5546 8.32111 44.9772 8.08199C45.3998 7.84287 45.7689 7.51962 46.0616 7.13222C46.3543 6.74482 46.5645 6.3015 46.6791 5.82966C46.7937 5.35781 46.8104 4.86748 46.728 4.38895C46.6456 3.91043 46.466 3.45388 46.2002 3.04753C45.9344 2.64118 45.588 2.29367 45.1826 2.02646C44.7772 1.75925 44.3213 1.57803 43.843 1.494C41.0779 0.845202 38.2482 0.511742 35.408 0.5C28.3907 0.518186 21.5362 2.61567 15.7104 6.5275C9.88457 10.4393 5.34877 15.99 2.67596 22.4784C0.00315118 28.9667 -0.686755 36.1017 0.693393 42.9819C2.07354 49.8622 5.46182 56.1791 10.4302 61.1346C15.3986 66.0902 21.7243 69.4621 28.6081 70.8245C35.4919 72.1868 42.625 71.4784 49.1064 68.7888C55.5879 66.0992 61.1268 61.5491 65.0235 55.7131C68.9203 49.8772 71 43.0173 71 36C70.9987 35.0573 70.623 34.1538 69.9556 33.4881C69.2882 32.8223 68.3837 32.4489 67.441 32.45V32.45Z" fill="url(#paint0_linear_2277_52376)"/>
<mask id="path-2-inside-1_2277_52376" fill="white">
<path d="M28 45.0418L26.25 43.2335L33.25 36.0002L26.25 28.7668L28 26.9585L35 34.1918L42 26.9585L43.75 28.7668L36.75 36.0002L43.75 43.2335L42 45.0418L35 37.8085L28 45.0418Z"/>
</mask>
<path d="M28 45.0418L26.25 43.2335L33.25 36.0002L26.25 28.7668L28 26.9585L35 34.1918L42 26.9585L43.75 28.7668L36.75 36.0002L43.75 43.2335L42 45.0418L35 37.8085L28 45.0418Z" fill="#1D4854"/>
<path d="M28 45.0418L23.6884 49.2144L28 53.6697L32.3116 49.2144L28 45.0418ZM26.25 43.2335L21.9384 39.061L17.9005 43.2335L21.9384 47.406L26.25 43.2335ZM33.25 36.0002L37.5616 40.1727L41.5995 36.0002L37.5616 31.8276L33.25 36.0002ZM26.25 28.7668L21.9384 24.5943L17.9005 28.7668L21.9384 32.9394L26.25 28.7668ZM28 26.9585L32.3116 22.786L28 18.3306L23.6884 22.786L28 26.9585ZM35 34.1918L30.6884 38.3644L35 42.8197L39.3116 38.3644L35 34.1918ZM42 26.9585L46.3116 22.786L42 18.3306L37.6884 22.786L42 26.9585ZM43.75 28.7668L48.0616 32.9394L52.0995 28.7668L48.0616 24.5943L43.75 28.7668ZM36.75 36.0002L32.4384 31.8276L28.4005 36.0002L32.4384 40.1727L36.75 36.0002ZM43.75 43.2335L48.0616 47.406L52.0995 43.2335L48.0616 39.061L43.75 43.2335ZM42 45.0418L37.6884 49.2144L42 53.6697L46.3116 49.2144L42 45.0418ZM35 37.8085L39.3116 33.636L35 29.1806L30.6884 33.636L35 37.8085ZM32.3116 40.8693L30.5616 39.061L21.9384 47.406L23.6884 49.2144L32.3116 40.8693ZM30.5616 47.406L37.5616 40.1727L28.9384 31.8276L21.9384 39.061L30.5616 47.406ZM37.5616 31.8276L30.5616 24.5943L21.9384 32.9394L28.9384 40.1727L37.5616 31.8276ZM30.5616 32.9394L32.3116 31.131L23.6884 22.786L21.9384 24.5943L30.5616 32.9394ZM23.6884 31.131L30.6884 38.3644L39.3116 30.0193L32.3116 22.786L23.6884 31.131ZM39.3116 38.3644L46.3116 31.131L37.6884 22.786L30.6884 30.0193L39.3116 38.3644ZM37.6884 31.131L39.4384 32.9394L48.0616 24.5943L46.3116 22.786L37.6884 31.131ZM39.4384 24.5943L32.4384 31.8276L41.0616 40.1727L48.0616 32.9394L39.4384 24.5943ZM32.4384 40.1727L39.4384 47.406L48.0616 39.061L41.0616 31.8276L32.4384 40.1727ZM39.4384 39.061L37.6884 40.8693L46.3116 49.2144L48.0616 47.406L39.4384 39.061ZM46.3116 40.8693L39.3116 33.636L30.6884 41.981L37.6884 49.2144L46.3116 40.8693ZM30.6884 33.636L23.6884 40.8693L32.3116 49.2144L39.3116 41.981L30.6884 33.636Z" fill="#1D4854" mask="url(#path-2-inside-1_2277_52376)"/>
</g>
<defs>
<linearGradient id="paint0_linear_2277_52376" x1="35.5" y1="0.5" x2="35.5" y2="71.4999" gradientUnits="userSpaceOnUse">
<stop stop-color="#F6D46B"/>
<stop offset="1" stop-color="#EA9265"/>
</linearGradient>
<clipPath id="clip0_2277_52376">
<rect width="71" height="71" fill="white" transform="translate(0 0.5)"/>
</clipPath>
</defs>
</svg>
