<svg width="245" height="240" viewBox="0 0 245 240" fill="none" xmlns="http://www.w3.org/2000/svg">
<path d="M234.548 120.002C234.548 53.1384 181.107 -0.951764 115.547 0.0127004C52.0438 0.948517 0.405525 54.2385 0.002378 119.226C-0.221592 155.62 15.391 188.282 40.1995 210.438C40.8078 210.979 41.2818 211.661 41.5824 212.427C41.883 213.192 42.0016 214.02 41.9285 214.842C41.8555 215.664 41.5927 216.456 41.162 217.153C40.7313 217.851 40.1449 218.434 39.451 218.854L17.3526 232.231C13.7803 234.395 15.2809 240 19.4299 239.998L119.494 239.973C183.238 238.761 234.548 185.516 234.548 120.002Z" fill="white" fill-opacity="0.17"/>
<path d="M125.999 0.0127004C122.865 0.0585363 119.759 0.238057 116.685 0.53408C176.263 6.24256 222.892 57.5463 222.892 120.002C222.892 185.518 171.581 238.762 107.839 239.975L29.8185 239.994C29.8409 239.994 29.8614 240 29.8838 240L129.948 239.975C193.69 238.762 245 185.518 245 120.003C245 53.1384 191.559 -0.951764 125.999 0.0127004Z" fill="#E6E6E6" fill-opacity="0.18"/>
<path d="M117.315 212.202C119.75 212.202 122.131 211.463 124.156 210.078C126.181 208.694 127.76 206.726 128.692 204.423C129.624 202.121 129.868 199.587 129.393 197.143C128.918 194.698 127.745 192.453 126.022 190.691C124.3 188.928 122.106 187.728 119.717 187.242C117.328 186.756 114.852 187.005 112.602 187.959C110.352 188.913 108.429 190.528 107.075 192.6C105.722 194.673 105 197.109 105 199.601C105 202.943 106.297 206.148 108.607 208.511C110.916 210.875 114.049 212.202 117.315 212.202V212.202Z" fill="white" fill-opacity="0.83"/>
<path d="M117.5 167C116.055 167 114.623 166.735 113.288 166.219C111.952 165.703 110.738 164.947 109.716 163.994C108.694 163.041 107.883 161.91 107.33 160.665C106.776 159.419 106.492 158.085 106.491 156.737V120.18C106.492 117.458 107.651 114.847 109.716 112.922C111.781 110.997 114.581 109.915 117.5 109.915C121.097 109.913 124.656 109.228 127.96 107.902C131.264 106.576 134.244 104.637 136.719 102.203C139.193 99.768 141.11 96.8893 142.352 93.7417C143.595 90.5941 144.137 87.2436 143.946 83.8943C143.23 71.0537 131.857 60.7938 118.052 60.5338C104.61 60.2808 93.122 69.409 91.2744 81.7643C91.1031 82.9099 91.0173 84.0652 91.0179 85.2218C91.0179 87.9443 89.8581 90.5553 87.7935 92.4804C85.7289 94.4055 82.9287 95.487 80.009 95.487C77.0892 95.487 74.289 94.4055 72.2245 92.4804C70.1599 90.5553 69 87.9443 69 85.2218C69.0002 83.1161 69.1567 81.0128 69.4684 78.9272C72.8122 56.5841 93.3691 40 117.504 40C117.835 40 118.164 40.0035 118.495 40.0087C143.786 40.4835 164.622 59.2929 165.932 82.8302C166.631 95.3622 161.921 107.269 152.67 116.352C146.133 122.751 137.737 127.233 128.509 129.251V156.735C128.509 158.083 128.225 159.418 127.672 160.663C127.118 161.909 126.307 163.04 125.285 163.994C124.263 164.947 123.049 165.703 121.713 166.219C120.378 166.735 118.946 167 117.5 167Z" fill="white" fill-opacity="0.83"/>
</svg>
