<svg width="100%" height="100%" viewBox="0 0 24 23" fill="none" xmlns="http://www.w3.org/2000/svg">
<path d="M12 0C9.62663 0 7.30655 0.674463 5.33316 1.9381C3.35977 3.20174 1.8217 4.99779 0.913451 7.09914C0.00519943 9.20049 -0.232441 11.5128 0.230582 13.7435C0.693605 15.9743 1.83649 18.0234 3.51472 19.6317C5.19295 21.24 7.33115 22.3353 9.65892 22.779C11.9867 23.2228 14.3995 22.995 16.5922 22.1246C18.7849 21.2542 20.6591 19.7802 21.9776 17.8891C23.2962 15.9979 24 13.7745 24 11.5C23.9989 8.45032 22.7343 5.52584 20.4841 3.36939C18.2339 1.21295 15.1823 0.00101605 12 0ZM13.2 17.25H10.8V14.95H13.2V17.25ZM13.2 12.65H10.8V5.75H13.2V12.65Z" fill="white"/>
</svg>
