<svg width="24" height="20" viewBox="0 0 24 20" fill="none" xmlns="http://www.w3.org/2000/svg">
<path fill-rule="evenodd" clip-rule="evenodd" d="M2.0498 2H10.0498V6C10.0498 8.21 8.2598 10 6.0498 10C3.8398 10 2.0498 8.21 2.0498 6V2ZM7.0498 11.92C9.8898 11.44 12.0498 8.98 12.0498 6V2V0H10.0498H2.0498H0.0498047V2V6C0.0498047 8.97 2.2098 11.44 5.0498 11.92V18H1.0498V20H11.0498V18H7.0498V11.92ZM18.9998 0L20.4098 1.41L23.9498 4.95L22.5398 6.36L19.9998 3.82V20H17.9998V3.83L15.4598 6.37L14.0498 4.95L17.5898 1.41L18.9998 0Z" fill="white"/>
</svg>
