<svg width="52" height="52" viewBox="0 0 52 52" fill="none" xmlns="http://www.w3.org/2000/svg">
<g clip-path="url(#clip0_2940_57508)">
<path d="M26 34C30.4183 34 34 30.4183 34 26C34 21.5817 30.4183 18 26 18C21.5817 18 18 21.5817 18 26C18 30.4183 21.5817 34 26 34Z" fill="#D80027"/>
<path d="M22.3781 22.8672L23.0687 24.9922H25.3031L23.4969 26.3078L24.1875 28.4328L22.3781 27.1203L20.5688 28.4328L21.2625 26.3078L19.4531 24.9922H21.6875L22.3781 22.8672Z" fill="#FFDA44"/>
<path d="M27.4845 30.3898L26.9563 29.7398L26.1751 30.043L26.6282 29.3398L26.1001 28.6867L26.9095 28.9023L27.3657 28.1992L27.4095 29.0367L28.222 29.2523L27.4376 29.5523L27.4845 30.3898Z" fill="#FFDA44"/>
<path d="M28.5345 28.4836L28.7845 27.6836L28.1001 27.1992L28.9376 27.1867L29.1845 26.3867L29.4563 27.1805L30.2938 27.1711L29.622 27.6711L29.8907 28.4648L29.2063 27.9805L28.5345 28.4836Z" fill="#FFDA44"/>
<path d="M29.9499 23.8715L29.5812 24.6246L30.1812 25.209L29.353 25.0902L28.9843 25.8402L28.8405 25.0152L28.0093 24.8965L28.753 24.5059L28.6093 23.6777L29.2093 24.2621L29.9499 23.8715Z" fill="#FFDA44"/>
<path d="M27.5064 21.5898L27.4439 22.4242L28.2221 22.7398L27.4064 22.9398L27.3471 23.7773L26.9064 23.0648L26.0908 23.2648L26.6314 22.6242L26.1877 21.9148L26.9658 22.2305L27.5064 21.5898Z" fill="#FFDA44"/>
</g>
<defs>
<clipPath id="clip0_2940_57508">
<rect width="16" height="16" fill="white" transform="translate(18 18)"/>
</clipPath>
</defs>
</svg>
