<svg width="52" height="52" viewBox="0 0 52 52" fill="none" xmlns="http://www.w3.org/2000/svg">
<g clip-path="url(#clip0_2952_19190)">
<path d="M26 34C30.4183 34 34 30.4183 34 26C34 21.5817 30.4183 18 26 18C21.5817 18 18 21.5817 18 26C18 30.4183 21.5817 34 26 34Z" fill="#F0F0F0"/>
<path d="M34.0003 25.9992C34.0003 22.8275 32.1545 20.087 29.4785 18.793V33.2053C32.1545 31.9113 34.0003 29.1708 34.0003 25.9992Z" fill="#D80027"/>
<path d="M18 25.9992C18 29.1708 19.8458 31.9113 22.5217 33.2053V18.793C19.8458 20.087 18 22.8275 18 25.9992Z" fill="#D80027"/>
<path d="M27.3917 27.0427L28.783 26.347L28.0873 25.9992V25.3036L26.696 25.9992L27.3917 24.6079H26.696L26.0004 23.5645L25.3047 24.6079H24.6091L25.3047 25.9992L23.9134 25.3036V25.9992L23.2178 26.347L24.6091 27.0427L24.2612 27.7384H25.6526V28.7818H26.3482V27.7384H27.7395L27.3917 27.0427Z" fill="#D80027"/>
</g>
<defs>
<clipPath id="clip0_2952_19190">
<rect width="16" height="16" fill="white" transform="translate(18 18)"/>
</clipPath>
</defs>
</svg>
