<svg width="12" height="14" viewBox="0 0 12 14" fill="none" xmlns="http://www.w3.org/2000/svg">
<path d="M6.00008 7.00065C6.36675 7.00065 6.68075 6.86998 6.94208 6.60865C7.20297 6.34776 7.33342 6.03398 7.33342 5.66732C7.33342 5.30065 7.20297 4.98665 6.94208 4.72532C6.68075 4.46443 6.36675 4.33398 6.00008 4.33398C5.63341 4.33398 5.31964 4.46443 5.05875 4.72532C4.79742 4.98665 4.66675 5.30065 4.66675 5.66732C4.66675 6.03398 4.79742 6.34776 5.05875 6.60865C5.31964 6.86998 5.63341 7.00065 6.00008 7.00065ZM6.00008 11.9007C7.35564 10.6562 8.36119 9.52554 9.01675 8.50865C9.6723 7.49221 10.0001 6.58954 10.0001 5.80065C10.0001 4.58954 9.61386 3.59776 8.84141 2.82532C8.06941 2.05332 7.1223 1.66732 6.00008 1.66732C4.87786 1.66732 3.93053 2.05332 3.15808 2.82532C2.38608 3.59776 2.00008 4.58954 2.00008 5.80065C2.00008 6.58954 2.32786 7.49221 2.98341 8.50865C3.63897 9.52554 4.64453 10.6562 6.00008 11.9007ZM6.00008 13.6673C4.21119 12.1451 2.87519 10.7311 1.99208 9.42532C1.10853 8.11998 0.666748 6.91176 0.666748 5.80065C0.666748 4.13398 1.20297 2.80621 2.27541 1.81732C3.34741 0.828429 4.58897 0.333984 6.00008 0.333984C7.41119 0.333984 8.65275 0.828429 9.72475 1.81732C10.7972 2.80621 11.3334 4.13398 11.3334 5.80065C11.3334 6.91176 10.8919 8.11998 10.0087 9.42532C9.12519 10.7311 7.78897 12.1451 6.00008 13.6673Z" fill="black"/>
</svg>
