<svg width="16" height="14" viewBox="0 0 16 14" fill="none" xmlns="http://www.w3.org/2000/svg">
<path d="M1.45455 12.0909C1.05455 12.0909 0.712242 11.9486 0.427636 11.664C0.142546 11.3789 0 11.0363 0 10.6363V1.90907C0 1.50907 0.142546 1.16677 0.427636 0.882165C0.712242 0.597074 1.05455 0.454529 1.45455 0.454529H13.0909C13.4909 0.454529 13.8335 0.597074 14.1185 0.882165C14.4032 1.16677 14.5455 1.50907 14.5455 1.90907V6.27271H1.45455V10.6363H8.72727V12.0909H1.45455ZM1.45455 3.36362H13.0909V1.90907H1.45455V3.36362ZM12.3636 13.5454V11.3636H10.1818V9.90907H12.3636V7.72726H13.8182V9.90907H16V11.3636H13.8182V13.5454H12.3636ZM1.45455 10.6363V1.90907V10.6363Z" fill="#1D4854"/>
</svg>
