<svg width="12" height="12" viewBox="0 0 12 12" fill="none" xmlns="http://www.w3.org/2000/svg">
<path d="M12 2.61667V11C12 11.2667 11.9 11.5 11.7 11.7C11.5 11.9 11.2667 12 11 12H1C0.733333 12 0.5 11.9 0.3 11.7C0.1 11.5 0 11.2667 0 11V1C0 0.733333 0.1 0.5 0.3 0.3C0.5 0.1 0.733333 0 1 0H9.38333L12 2.61667ZM11 3.06667L8.93333 1H1V11H11V3.06667ZM6 9.91667C6.47778 9.91667 6.88611 9.74722 7.225 9.40833C7.56389 9.06944 7.73333 8.66111 7.73333 8.18333C7.73333 7.70556 7.56389 7.29722 7.225 6.95833C6.88611 6.61944 6.47778 6.45 6 6.45C5.52222 6.45 5.11389 6.61944 4.775 6.95833C4.43611 7.29722 4.26667 7.70556 4.26667 8.18333C4.26667 8.66111 4.43611 9.06944 4.775 9.40833C5.11389 9.74722 5.52222 9.91667 6 9.91667ZM1.88333 4.26667H7.85V1.88333H1.88333V4.26667ZM1 3.06667V11V1V3.06667Z" fill="black"/>
</svg>
