<svg width="14" height="16" viewBox="0 0 14 16" fill="none" xmlns="http://www.w3.org/2000/svg">
<path fill-rule="evenodd" clip-rule="evenodd" d="M10.1451 10.2305C11.9901 7.98797 11.8701 4.67297 9.77756 2.57297C7.55006 0.345469 3.94256 0.345469 1.71506 2.57297C-0.512441 4.80047 -0.512441 8.40797 1.71506 10.6355C3.71006 12.6305 6.82256 12.8405 9.05006 11.2505L12.8976 15.098L13.9551 14.0405L10.1451 10.2305ZM8.71256 9.57797C7.07006 11.2205 4.41506 11.2205 2.77256 9.57797C1.13006 7.93547 1.13006 5.28047 2.77256 3.63797C4.41506 1.99547 7.07006 1.99547 8.71256 3.63797C10.3551 5.28047 10.3551 7.93547 8.71256 9.57797Z" fill="black"/>
</svg>
