<svg width="175" height="32" viewBox="0 0 175 32" fill="none" xmlns="http://www.w3.org/2000/svg">
<path d="M99.754 19.8337C99.7845 21.3526 99.7845 23.2709 99.7845 25.8274C99.7845 28.3857 99.7845 30.2876 99.754 31.8211H101.485C101.439 30.2712 101.439 28.3529 101.439 25.8274C101.439 23.2545 101.439 21.3526 101.485 19.8337H99.754ZM107.502 14.1318C107.36 15.2021 107.251 16.081 107.188 16.7539H107.109C107.03 16.0829 106.937 15.204 106.778 14.1172C106.369 11.2726 105.897 7.45246 105.771 6.23804H103.74C103.63 7.51628 103.046 11.3692 102.685 14.0862C102.543 15.1256 102.418 16.0209 102.339 16.7083H102.26C102.197 16.0373 102.101 15.142 101.96 14.0862C101.566 11.2416 101.015 7.27741 100.936 6.23804H98.8254C99.3607 8.65229 100.747 16.2433 101.141 18.2254C101.329 18.209 101.613 18.209 102.055 18.209C102.401 18.209 102.795 18.209 103.093 18.2254C103.282 17.042 103.786 13.8619 104.18 11.2562C104.338 10.266 104.463 9.0498 104.557 8.10708H104.603C104.699 9.03339 104.824 10.2168 104.966 11.2398C105.313 13.7963 105.785 17.1696 105.941 18.2254C106.162 18.209 106.556 18.209 107.075 18.209C107.421 18.209 107.752 18.209 107.989 18.2254C108.319 16.3546 109.832 8.68329 110.32 6.23804H108.54C108.415 7.46522 107.863 11.3656 107.502 14.1318ZM115.694 27.9536C115.473 29.0093 115.331 29.8244 115.222 30.4462H115.159C115.049 29.839 114.907 29.0075 114.687 27.9846C114.168 25.1546 113.428 21.1284 113.269 19.8337H111.333C112.01 22.3264 113.553 30.0943 113.914 31.8211C114.135 31.8047 114.512 31.8047 115.159 31.8047C115.631 31.8047 116.071 31.8047 116.386 31.8211C116.748 30.0943 118.291 22.6309 118.936 19.8337H117.126C116.953 21.0317 116.197 25.1236 115.694 27.9536ZM108.682 19.8337C108.729 21.0645 108.777 24.117 108.777 26.4036C108.777 27.4102 108.84 28.4167 108.919 29.5053H108.903C108.682 28.61 108.415 27.6509 108.131 26.8832C107.077 24.1024 105.643 20.7928 105.345 19.8337H103.298C103.328 21.2396 103.328 23.2855 103.328 25.8274C103.328 28.3857 103.312 30.2876 103.298 31.8211H104.794C104.778 30.8784 104.778 28.5134 104.761 25.2202C104.745 24.0368 104.699 22.8388 104.636 21.5915H104.652C104.873 22.5981 105.157 23.6374 105.534 24.644C106.651 27.2807 107.991 30.5903 108.415 31.8211H110.162C110.146 30.2712 110.146 28.4641 110.146 25.811C110.146 23.2691 110.162 21.0481 110.177 19.8337H108.682ZM113.44 18.2218C113.392 16.6718 113.392 14.7536 113.392 12.2281C113.392 9.65519 113.392 7.75333 113.44 6.23439H111.709C111.739 7.75333 111.739 9.6716 111.739 12.2281C111.739 14.7846 111.739 16.6883 111.709 18.2218H113.44ZM123.962 12.2281C123.962 12.8918 123.963 13.5282 123.963 14.1299C123.963 14.3469 123.963 14.5585 123.963 14.7645C123.963 14.8028 123.963 14.8429 123.963 14.8812C123.963 16.205 123.929 18.22 123.929 18.22H129.786C129.77 18.0595 129.77 17.7404 129.77 17.5015C129.77 17.2462 129.77 16.743 129.786 16.5515C128.26 16.5825 126.78 16.7174 125.598 16.7174V12.8517C126.097 12.8517 126.018 12.8535 126.53 12.8535C127.498 12.8535 129.786 12.9848 129.786 12.9848V11.3237C129.786 11.3237 127.498 11.4549 126.53 11.4549C126.018 11.4549 126.099 11.4568 125.598 11.4568V7.73692C126.78 7.73692 128.258 7.87185 129.786 7.90285C129.77 7.71139 129.77 7.20812 129.77 6.95283C129.77 6.71396 129.77 6.39303 129.786 6.23439H123.929C123.978 7.52904 123.962 9.68801 123.962 12.2281ZM116.747 18.2218C116.731 17.2791 116.731 14.914 116.716 11.6209C116.7 10.4375 116.653 9.23944 116.59 7.9922H116.607C116.827 8.99875 117.109 10.0381 117.488 11.0447C118.606 13.6814 119.944 16.9909 120.369 18.2218H122.117C122.101 16.6718 122.101 14.8648 122.101 12.2117C122.101 9.66978 122.117 7.44881 122.131 6.23439H120.637C120.684 7.46522 120.732 10.5177 120.732 12.8043C120.732 13.8108 120.795 14.8174 120.874 15.906H120.858C120.637 15.0107 120.369 14.0515 120.086 13.2839C119.031 10.5031 117.598 7.19353 117.298 6.23439H115.251C115.283 7.64027 115.283 9.68619 115.283 12.2281C115.283 14.7846 115.267 16.6883 115.251 18.2218H116.747ZM150.822 19.8337H148.839C148.525 20.9533 147.736 23.8453 147.012 26.4674C146.84 27.0746 146.666 27.8733 146.508 28.641H146.429C146.287 27.8733 146.098 27.0108 145.956 26.4346C145.2 23.8289 144.413 20.9041 144.115 19.8337H141.958C141.989 21.4001 141.989 23.1907 141.989 25.811C141.989 28.3529 141.989 30.0943 141.958 31.8211H143.422C143.406 29.3594 143.375 27.6964 143.375 25.0926C143.359 23.9584 143.296 22.7275 143.28 21.4967H143.327C143.515 22.5361 143.767 23.7505 144.004 24.6622L145.956 31.8229H146.696L148.632 24.7735C148.853 23.9255 149.089 22.6473 149.293 21.5295H149.34C149.308 22.6965 149.247 23.9584 149.247 25.0141C149.247 27.6035 149.23 29.3613 149.168 31.8229H150.836C150.804 30.0961 150.789 28.3547 150.789 25.8128C150.791 23.1889 150.806 21.4001 150.822 19.8337ZM165.232 19.8337C165.278 21.0645 165.327 24.117 165.327 26.4036C165.327 27.4102 165.39 28.4167 165.469 29.5053H165.453C165.232 28.61 164.964 27.6509 164.68 26.8832C163.626 24.1024 162.193 20.7928 161.893 19.8337H159.845C159.878 21.2396 159.878 23.2855 159.878 25.8274C159.878 28.3857 159.861 30.2876 159.845 31.8211H161.341C161.325 30.8784 161.325 28.5134 161.311 25.2202C161.295 24.0368 161.248 22.8388 161.185 21.5915H161.201C161.422 22.5981 161.706 23.6374 162.083 24.644C163.2 27.2807 164.538 30.5903 164.964 31.8211H166.712C166.696 30.2712 166.696 28.4641 166.696 25.811C166.696 23.2691 166.712 21.0481 166.728 19.8337H165.232ZM152.428 19.8337C152.476 21.1284 152.46 23.2855 152.46 25.8274C152.46 26.4911 152.462 27.1275 152.462 27.7293C152.462 27.9463 152.462 28.1578 152.462 28.3638C152.462 28.4021 152.462 28.4422 152.462 28.4805C152.462 29.8044 152.428 31.8193 152.428 31.8193H158.285C158.268 31.6588 158.268 31.3397 158.268 31.1008C158.268 30.8456 158.268 30.3423 158.285 30.1508C156.758 30.1818 155.278 30.3168 154.096 30.3168V26.451C154.595 26.451 154.516 26.4529 155.028 26.4529C155.996 26.4529 158.031 26.5841 158.031 26.5841V24.923C158.031 24.923 155.996 25.0543 155.028 25.0543C154.516 25.0543 154.597 25.0561 154.096 25.0561V21.3326C155.278 21.3326 156.756 21.4675 158.285 21.4985C158.268 21.3071 158.268 20.8038 158.268 20.5485C158.268 20.3096 158.268 19.9887 158.285 19.8301H152.428V19.8337ZM174.085 20.585C174.085 20.3133 174.085 20.0252 174.101 19.8337H168.023C168.039 20.0252 168.039 20.3133 168.039 20.585C168.039 20.8238 168.039 21.1448 168.023 21.3526C168.81 21.3362 169.582 21.3362 170.259 21.3362C170.259 25.4445 170.259 30.862 170.212 31.8211C170.464 31.8047 170.81 31.8047 171.062 31.8047C171.313 31.8047 171.676 31.8047 171.927 31.8211C171.881 30.862 171.881 25.4445 171.881 21.3362C172.558 21.3362 173.33 21.3362 174.101 21.3526C174.085 21.143 174.085 20.8238 174.085 20.585ZM120.073 19.8337C120.122 21.1284 120.105 23.2855 120.105 25.8274C120.105 26.4911 120.107 27.1275 120.107 27.7293C120.107 27.9463 120.107 28.1578 120.107 28.3638C120.107 28.4021 120.107 28.4422 120.107 28.4805C120.107 29.8044 120.073 31.8193 120.073 31.8193H125.93C125.914 31.6588 125.914 31.3397 125.914 31.1008C125.914 30.8456 125.914 30.3423 125.93 30.1508C124.403 30.1818 122.923 30.3168 121.742 30.3168V26.451C122.241 26.451 122.162 26.4529 122.674 26.4529C123.642 26.4529 125.93 26.5841 125.93 26.5841V24.923C125.93 24.923 123.642 25.0543 122.674 25.0543C122.162 25.0543 122.243 25.0561 121.742 25.0561V21.3326C122.923 21.3326 124.402 21.4675 125.93 21.4985C125.914 21.3071 125.914 20.8038 125.914 20.5485C125.914 20.3096 125.914 19.9887 125.93 19.8301H120.073V19.8337ZM134.575 19.8337C134.591 20.0252 134.591 20.3133 134.591 20.585C134.591 20.8238 134.591 21.1448 134.575 21.3526C135.361 21.3362 136.134 21.3362 136.811 21.3362C136.811 25.4445 136.811 30.862 136.764 31.8211C137.015 31.8047 137.362 31.8047 137.613 31.8047C137.865 31.8047 138.228 31.8047 138.479 31.8211C138.432 30.862 138.432 25.4445 138.432 21.3362C139.11 21.3362 139.88 21.3362 140.652 21.3526C140.636 21.1448 140.636 20.8257 140.636 20.585C140.636 20.3133 140.636 20.0252 140.652 19.8337H134.575ZM130.735 25.0287C129.082 24.3413 128.798 23.5262 128.798 22.5507C128.798 21.5751 129.303 21.0955 130.357 21.0955C131.57 21.0955 132.042 21.6718 132.042 22.8862C132.042 23.1743 132.026 23.5408 132.012 23.8763C132.216 23.8763 132.5 23.8599 132.798 23.8599C133.082 23.8599 133.35 23.8599 133.538 23.8763C133.554 23.477 133.569 23.1889 133.569 22.8059C133.569 20.7126 132.624 19.6568 130.341 19.6568C128.247 19.6568 127.176 20.7126 127.176 22.5507C127.176 24.3887 127.916 25.5393 130.104 26.4346C131.679 27.0746 132.119 27.9371 132.119 29.0403C132.119 30.0469 131.663 30.5593 130.481 30.5593C129.222 30.5593 128.718 30.0159 128.718 28.5134C128.718 28.3055 128.718 28.001 128.734 27.7293C128.497 27.7457 128.198 27.7457 127.868 27.7457C127.568 27.7457 127.3 27.7293 127.096 27.7129C127.079 28.0812 127.063 28.3201 127.063 28.7996C127.063 30.7817 128.04 31.9962 130.479 31.9962C132.653 31.9962 133.675 30.8456 133.675 28.9437C133.678 27.0418 132.75 25.8438 130.735 25.0287ZM40.9739 21.4748C41.1122 28.9382 38.3157 28.6738 37.3566 28.455C35.5461 28.0393 35.3486 25.2694 35.3486 20.7309V6.28909H26.2496V23.8581C26.2496 29.168 29.0389 31.998 34.1757 31.998C36.1011 31.998 40.629 32.246 42.7628 27.2497H44.2984V31.7682H50.0746V6.28727H40.9757V21.4748H40.9739ZM63.1267 0.0237049L53.832 0V21.7957C53.832 28.1924 56.9033 31.7937 61.855 31.998H67.017V25.6396H63.1267V0.0237049ZM11.3763 5.96817C5.11702 6.7796 0 11.7704 0 18.8636C0 25.9569 5.11702 30.9458 11.3763 31.7609C17.1489 32.5122 20.6656 31.2978 22.5731 30.3879V20.5321H21.2925V20.5303C15.8575 20.5303 11.4697 24.3285 11.4697 30.5027C10.5609 30.3441 9.87662 30.2238 8.93907 29.8189C8.98397 29.436 8.99295 24.2374 8.99115 18.8636C8.99295 13.4899 8.98397 8.29125 8.93907 7.90832C9.87662 7.50351 10.5609 7.38317 11.4697 7.22453C11.4697 13.3987 15.8575 17.197 21.2925 17.197H22.5749V7.3394C20.6656 6.4295 17.1507 5.2169 11.3763 5.96817ZM88.8375 21.7793L84.1695 24.2446C82.8853 24.923 82.0788 26.2705 82.0788 27.7384V29.2154L79.6829 29.2683L79.6775 11.1997H89.784V6.23986H79.4835V0L76.3655 0C73.5475 4.183 70.1637 7.59833 66.5158 10.308V11.2015H70.3792V21.6736C70.3792 29.3175 73.9013 31.9962 80.1624 31.9962C82.6087 31.9962 84.6616 31.6533 86.7792 30.4936C88.9686 29.2938 89.8038 27.9317 89.8038 27.9317L89.7535 21.7556L88.8375 21.7793Z" fill="white"/>
</svg>
