<svg width="14" height="14" viewBox="0 0 14 14" fill="none" xmlns="http://www.w3.org/2000/svg">
<path d="M9.19992 10.1334L10.1333 9.20004L7.66658 6.73337V3.66671H6.33325V7.26671L9.19992 10.1334ZM6.99992 13.6667C6.0777 13.6667 5.21103 13.4916 4.39992 13.1414C3.58881 12.7916 2.88325 12.3167 2.28325 11.7167C1.68325 11.1167 1.20836 10.4112 0.858585 9.60004C0.508363 8.78893 0.333252 7.92226 0.333252 7.00004C0.333252 6.07782 0.508363 5.21115 0.858585 4.40004C1.20836 3.58893 1.68325 2.88337 2.28325 2.28337C2.88325 1.68337 3.58881 1.20826 4.39992 0.858041C5.21103 0.508263 6.0777 0.333374 6.99992 0.333374C7.92214 0.333374 8.78881 0.508263 9.59992 0.858041C10.411 1.20826 11.1166 1.68337 11.7166 2.28337C12.3166 2.88337 12.7915 3.58893 13.1413 4.40004C13.4915 5.21115 13.6666 6.07782 13.6666 7.00004C13.6666 7.92226 13.4915 8.78893 13.1413 9.60004C12.7915 10.4112 12.3166 11.1167 11.7166 11.7167C11.1166 12.3167 10.411 12.7916 9.59992 13.1414C8.78881 13.4916 7.92214 13.6667 6.99992 13.6667ZM6.99992 12.3334C8.4777 12.3334 9.73614 11.814 10.7753 10.7754C11.8139 9.73626 12.3333 8.47782 12.3333 7.00004C12.3333 5.52226 11.8139 4.26382 10.7753 3.22471C9.73614 2.18604 8.4777 1.66671 6.99992 1.66671C5.52214 1.66671 4.26392 2.18604 3.22525 3.22471C2.18614 4.26382 1.66659 5.52226 1.66659 7.00004C1.66659 8.47782 2.18614 9.73626 3.22525 10.7754C4.26392 11.814 5.52214 12.3334 6.99992 12.3334Z" fill="black"/>
</svg>
