<svg width="26" height="12" viewBox="0 0 26 12" fill="none" xmlns="http://www.w3.org/2000/svg">
<path d="M24.3137 1.045C23.3337 0.0649976 21.7537 0.0649976 20.7737 1.045C20.0537 1.765 19.8637 2.825 20.2137 3.725L17.0837 6.855C16.4937 6.625 15.8437 6.625 15.2637 6.855L12.1337 3.725C12.4837 2.825 12.3037 1.775 11.5737 1.045C10.5937 0.0649976 9.01373 0.0649976 8.03373 1.045C7.32373 1.775 7.14373 2.825 7.49373 3.725L4.36373 6.855C3.46373 6.505 2.41373 6.685 1.68373 7.415C0.70373 8.395 0.70373 9.975 1.68373 10.955C2.66373 11.935 4.24373 11.935 5.22373 10.955C5.94373 10.235 6.13373 9.175 5.78373 8.275L8.91373 5.145C9.50373 5.375 10.1537 5.375 10.7337 5.145L13.8637 8.275C13.5137 9.175 13.6937 10.225 14.4237 10.955C15.4037 11.935 16.9837 11.935 17.9637 10.955C18.6837 10.235 18.8737 9.175 18.5237 8.275L21.6537 5.145C22.5537 5.495 23.6037 5.315 24.3337 4.585C25.2937 3.605 25.2937 2.025 24.3137 1.045Z" fill="white"/>
</svg>
