<svg width="134" height="134" viewBox="0 0 134 134" fill="none" xmlns="http://www.w3.org/2000/svg">
<circle cx="67" cy="67" r="65.5" stroke="white" stroke-width="3"/>
<path d="M62.9422 37.9685L36.8264 81.5668C36.2879 82.4993 36.003 83.5565 36 84.6332C35.997 85.71 36.276 86.7688 36.8092 87.7042C37.3424 88.6397 38.1113 89.4193 39.0393 89.9653C39.9674 90.5114 41.0222 90.805 42.0989 90.8168H94.3306C95.4073 90.805 96.4621 90.5114 97.3901 89.9653C98.3182 89.4193 99.087 88.6397 99.6202 87.7042C100.153 86.7688 100.432 85.71 100.429 84.6332C100.426 83.5565 100.142 82.4993 99.6031 81.5668L73.4872 37.9685C72.9376 37.0623 72.1636 36.3131 71.2401 35.7931C70.3165 35.2732 69.2746 35 68.2147 35C67.1549 35 66.1129 35.2732 65.1894 35.7931C64.2658 36.3131 63.4919 37.0623 62.9422 37.9685V37.9685Z" stroke="white" stroke-width="3" stroke-linecap="round" stroke-linejoin="round"/>
<path d="M68.2147 53.8169V66.1502" stroke="white" stroke-width="3" stroke-linecap="round" stroke-linejoin="round"/>
<path d="M68.2147 78.4835H68.2439" stroke="white" stroke-width="3" stroke-linecap="round" stroke-linejoin="round"/>
</svg>
