<svg width="180" height="180" viewBox="0 0 180 180" fill="none" xmlns="http://www.w3.org/2000/svg">
<rect width="180" height="180" rx="10" fill="#FF906D"/>
<path d="M86.5829 7.49321C45.547 12.6531 12 44.3893 12 89.4949C12 134.6 45.547 166.325 86.5829 171.508C124.428 176.285 147.483 168.563 159.988 162.777V100.105H151.593V100.093C115.961 100.093 87.1952 124.246 87.1952 163.507C81.237 162.499 76.7507 161.733 70.6042 159.159C70.8986 156.724 70.9574 123.666 70.9457 89.4949C70.9574 55.3237 70.8986 22.2656 70.6042 19.8306C76.7507 17.2564 81.237 16.4911 87.1952 15.4823C87.1952 54.7439 115.961 78.8968 151.593 78.8968H160V16.2129C147.483 10.4268 124.439 2.71596 86.5829 7.49321Z" fill="black"/>
</svg>
