<svg width="16" height="16" viewBox="0 0 16 16" fill="none" xmlns="http://www.w3.org/2000/svg">
<path d="M7.5512 1.12518C3.94669 1.55775 1 4.21827 1 7.99957C1 11.7809 3.94669 14.4404 7.5512 14.8749C10.8754 15.2754 12.9005 14.628 13.999 14.143V8.88901H13.2615V8.88803C10.1318 8.88803 7.60498 10.9128 7.60498 14.2042C7.08163 14.1196 6.68756 14.0555 6.14766 13.8397C6.17352 13.6356 6.17869 10.8642 6.17766 7.99957C6.17869 5.13492 6.17352 2.36358 6.14766 2.15945C6.68756 1.94365 7.08163 1.8795 7.60498 1.79493C7.60498 5.08632 10.1318 7.11111 13.2615 7.11111H14V1.85617C12.9005 1.37111 10.8764 0.724692 7.5512 1.12518Z" fill="black"/>
</svg>
