<svg id="Group_2" data-name="Group 2" xmlns="http://www.w3.org/2000/svg" width="100%" height="100%" viewBox="0 0 622 203">
  <rect id="Rectangle_3" data-name="Rectangle 3" width="622" height="203" fill="#f0ebe6"/>
  <path id="Path_2" data-name="Path 2" d="M374.484,111.568c.076,3.949.076,8.936.076,15.583s0,11.6-.076,15.584h4.3c-.116-4.03-.116-9.017-.116-15.584,0-6.689,0-11.634.116-15.583Zm19.223-14.825c-.352,2.783-.624,5.068-.78,6.817h-.2c-.2-1.745-.427-4.03-.819-6.855-1.016-7.4-2.188-17.328-2.5-20.486h-5.04c-.272,3.323-1.72,13.341-2.616,20.405-.352,2.7-.664,5.03-.86,6.818h-.2c-.156-1.745-.392-4.073-.744-6.818-.976-7.4-2.344-17.7-2.54-20.405h-5.235c1.327,6.277,4.767,26.014,5.743,31.167.468-.043,1.172-.043,2.268-.043.86,0,1.836,0,2.576.043.468-3.077,1.72-11.345,2.7-18.12.392-2.574.7-5.737.936-8.188h.115c.237,2.408.548,5.485.9,8.145.86,6.647,2.032,15.418,2.42,18.163.548-.043,1.524-.043,2.812-.043.86,0,1.68,0,2.268.043.82-4.864,4.572-24.809,5.784-31.167h-4.416C395.971,79.41,394.6,89.55,393.707,96.743Zm20.324,35.936c-.548,2.745-.9,4.864-1.172,6.481H412.7c-.272-1.579-.624-3.74-1.172-6.4-1.288-7.358-3.123-17.826-3.516-21.192h-4.8c1.68,6.481,5.507,26.677,6.4,31.167.548-.043,1.484-.043,3.088-.043,1.172,0,2.264,0,3.044.043.9-4.49,4.727-23.9,6.327-31.167h-4.492C417.155,114.682,415.279,125.321,414.031,132.679Zm-17.4-21.111c.116,3.2.236,11.136.236,17.081,0,2.617.156,5.234.352,8.065h-.04a69.644,69.644,0,0,0-1.916-6.818c-2.616-7.23-6.172-15.835-6.911-18.328h-5.08c.076,3.655.076,8.974.076,15.583,0,6.652-.04,11.6-.076,15.584h3.712c-.04-2.451-.04-8.6-.08-17.162-.041-3.077-.156-6.192-.312-9.435h.04a60.456,60.456,0,0,0,2.188,7.936c2.771,6.856,6.1,15.461,7.147,18.661h4.336c-.041-4.03-.041-8.728-.041-15.626,0-6.609.041-12.384.076-15.541Zm11.8-4.191c-.121-4.03-.121-9.018-.121-15.584,0-6.689,0-11.634.121-15.584h-4.3c.076,3.949.076,8.937.076,15.584s0,11.6-.076,15.584Zm26.1-15.584c0,1.726,0,3.38,0,4.945v1.953c0,3.442-.084,8.681-.084,8.681h14.53c-.04-.417-.04-1.247-.04-1.868,0-.664,0-1.972.04-2.47-3.787.08-7.459.431-10.391.431V93.414c1.239,0,1.043,0,2.313,0,2.4,0,8.078.341,8.078.341V89.441s-5.676.341-8.078.341c-1.27,0-1.07,0-2.313,0V80.116c2.932,0,6.6.351,10.391.431-.04-.5-.04-1.806-.04-2.47,0-.621,0-1.455.04-1.868h-14.53C434.582,79.576,434.542,85.189,434.542,91.793Zm-17.9,15.584c-.04-2.451-.04-8.6-.076-17.163-.04-3.077-.156-6.192-.312-9.435h.041a59.836,59.836,0,0,0,2.187,7.936c2.772,6.855,6.092,15.46,7.148,18.661h4.335c-.04-4.03-.04-8.729-.04-15.627,0-6.609.04-12.383.076-15.541h-3.707c.116,3.2.236,11.137.236,17.082,0,2.617.156,5.234.352,8.065h-.04a69.628,69.628,0,0,0-1.916-6.818c-2.616-7.23-6.172-15.835-6.916-18.329h-5.08c.081,3.655.081,8.975.081,15.584,0,6.647-.041,11.6-.081,15.584Zm84.539,4.191h-4.92c-.779,2.911-2.736,10.43-4.531,17.247-.428,1.579-.86,3.656-1.253,5.652h-.2c-.352-2-.819-4.239-1.171-5.737-1.876-6.775-3.828-14.379-4.568-17.162h-5.351c.075,4.072.075,8.728.075,15.541,0,6.609,0,11.136-.075,15.626h3.631c-.04-6.4-.116-10.724-.116-17.494-.04-2.949-.2-6.149-.236-9.35h.116c.468,2.7,1.092,5.86,1.68,8.231l4.844,18.618h1.835l4.8-18.329c.548-2.205,1.132-5.528,1.64-8.434h.116c-.081,3.034-.232,6.315-.232,9.06,0,6.732-.04,11.3-.2,17.7h4.139c-.08-4.49-.116-9.018-.116-15.627C501.105,120.291,501.141,115.64,501.181,111.568Zm35.75,0c.116,3.2.236,11.136.236,17.081,0,2.617.156,5.234.352,8.065h-.04a69.627,69.627,0,0,0-1.916-6.818c-2.616-7.23-6.172-15.835-6.916-18.328h-5.08c.081,3.655.081,8.974.081,15.583,0,6.652-.04,11.6-.081,15.584h3.712c-.04-2.451-.04-8.6-.075-17.162-.041-3.077-.156-6.192-.312-9.435h.04a60.456,60.456,0,0,0,2.188,7.936c2.771,6.856,6.091,15.461,7.147,18.661H540.6c-.04-4.03-.04-8.728-.04-15.626,0-6.609.04-12.384.08-15.541Zm-31.767,0c.121,3.366.081,8.974.081,15.583,0,1.726,0,3.381,0,4.945v1.953c0,3.442-.085,8.681-.085,8.681H519.7c-.04-.417-.04-1.247-.04-1.868,0-.664,0-1.972.04-2.47-3.787.081-7.459.432-10.391.432V128.773c1.239,0,1.043,0,2.313,0,2.4,0,7.45.342,7.45.342V124.8s-5.049.341-7.45.341c-1.27,0-1.07.005-2.313.005v-9.681c2.932,0,6.6.351,10.391.431-.04-.5-.04-1.806-.04-2.47,0-.621,0-1.455.04-1.868H505.164Zm53.73,1.953c0-.706,0-1.456.04-1.953H543.855c.041.5.041,1.247.041,1.953,0,.621,0,1.455-.041,2,1.952-.043,3.868-.043,5.548-.043,0,10.682,0,24.767-.116,27.261.624-.043,1.484-.043,2.108-.043s1.524,0,2.148.043c-.116-2.494-.116-16.579-.116-27.261,1.68,0,3.6,0,5.507.043C558.894,114.972,558.894,114.142,558.894,113.521Zm-134-1.953c.12,3.366.08,8.974.08,15.583,0,1.726,0,3.381,0,4.945v1.953c0,3.442-.084,8.681-.084,8.681h14.531c-.041-.417-.041-1.247-.041-1.868,0-.664,0-1.972.041-2.47-3.788.081-7.46.432-10.392.432V128.773c1.239,0,1.043,0,2.313,0,2.4,0,8.079.342,8.079.342V124.8s-5.677.341-8.079.341c-1.27,0-1.07.005-2.313.005v-9.681c2.932,0,6.6.351,10.392.431-.041-.5-.041-1.806-.041-2.47,0-.621,0-1.455.041-1.868H424.895Zm35.977,0c.04.5.04,1.247.04,1.953,0,.621,0,1.455-.04,2,1.952-.043,3.868-.043,5.548-.043,0,10.682,0,24.767-.116,27.261.624-.043,1.484-.043,2.108-.043s1.523,0,2.147.043c-.116-2.494-.116-16.579-.116-27.261,1.68,0,3.592,0,5.508.043-.04-.541-.04-1.37-.04-2,0-.706,0-1.456.04-1.953Zm-9.527,13.507c-4.1-1.788-4.8-3.907-4.8-6.443s1.252-3.784,3.867-3.784c3.008,0,4.18,1.5,4.18,4.656,0,.749-.04,1.7-.076,2.574.508,0,1.212-.042,1.952-.042.7,0,1.368,0,1.836.042.04-1.038.076-1.787.076-2.783,0-5.442-2.344-8.187-8.008-8.187-5.195,0-7.851,2.745-7.851,7.524s1.836,7.77,7.263,10.1c3.908,1.664,5,3.907,5,6.775,0,2.617-1.132,3.949-4.064,3.949-3.124,0-4.376-1.413-4.376-5.319,0-.541,0-1.332.04-2.039-.588.043-1.328.043-2.148.043-.744,0-1.408-.043-1.916-.086-.04.958-.08,1.579-.08,2.826,0,5.154,2.424,8.311,8.475,8.311,5.392,0,7.928-2.992,7.928-7.936S456.345,127.194,451.345,125.075Zm-222.691-9.24c.343,19.4-6.6,18.717-8.974,18.148C215.188,132.9,214.7,125.7,214.7,113.9V76.352H192.124v45.679c0,13.806,6.92,21.164,19.664,21.164,4.777,0,16.01.645,21.3-12.346h3.81V142.6h14.33V76.347H228.658v39.488Zm54.96-55.773L260.554,60v56.669c0,16.631,7.62,26,19.905,26.526h12.806V126.663h-9.651ZM155.224,75.517C139.7,77.627,127,90.6,127,109.045s12.7,31.414,28.224,33.533c14.322,1.954,23.046-1.2,27.779-3.57V113.383h-3.178v0c-13.483,0-24.369,9.875-24.369,25.928a23.856,23.856,0,0,1-6.279-1.778c.112-1,.134-14.512.13-28.484s-.018-27.488-.13-28.483a23.89,23.89,0,0,1,6.279-1.778c0,16.053,10.886,25.928,24.369,25.928h3.182V79.082C178.27,76.717,169.55,73.564,155.224,75.517ZM347.4,116.626l-11.581,6.41a10.345,10.345,0,0,0-5.187,9.084v3.84l-5.944.137-.014-46.978h25.074v-12.9H324.194V60h-7.735a107.577,107.577,0,0,1-24.437,26.8v2.323h9.585v27.227c0,19.874,8.738,26.839,24.272,26.839,6.069,0,11.162-.891,16.415-3.907,5.432-3.119,7.5-6.661,7.5-6.661l-.125-16.057Z"/>
</svg>
